<svg width="469" height="69" viewBox="0 0 469 69" fill="none" xmlns="http://www.w3.org/2000/svg">
<path fill-rule="evenodd" clip-rule="evenodd" d="M46.9196 8.97917V43.3423L0 0V68.909L11.3885 59.9291V26.8483L58.3057 68.9081V0L46.9178 8.97999L46.9196 8.97917ZM117.844 11.6372V0.182825H72.1991V68.9081H117.841V57.4536H83.5865V40.2271H112.74V28.7726H83.5865V11.6372H117.841H117.844ZM138.623 69L157.573 43.6135L176.703 69H191.918L166.592 34.7294L191.918 0.182825H176.7L157.57 25.6573L138.62 0.182825H123.501L150.012 34.7294L123.501 69H138.624H138.623ZM253.001 0.182825H196.063V11.6372H218.838V68.9081H230.217V11.6372H252.993V0.182825H253.001ZM270.526 0.273677H256.859L291.663 69L298.223 55.8049L270.526 0.273677ZM321.63 42.7927L301.496 0.273901H287.833L321.45 69L356.159 0.273901H342.495L321.63 42.7927ZM407.949 11.6372V0.182825H362.309V68.9081H407.951V57.4536H373.697V40.2271H402.848V28.7726H373.697V11.6372H407.951H407.949ZM419.253 68.9081H450.775C453.959 68.784 457.075 67.9381 459.884 66.4341C461.094 65.7857 462.226 65.0021 463.258 64.0978C464.401 63.0914 465.383 61.9169 466.173 60.6151C467.082 59.101 467.772 57.4661 468.222 55.759C468.772 53.6192 469.033 51.4157 468.997 49.2068C469.026 47.1375 468.709 45.0777 468.056 43.1132C467.496 41.4501 466.728 39.8644 465.77 38.394C464.949 37.1374 463.963 35.9974 462.839 35.0035C461.918 34.1888 460.93 33.4532 459.886 32.804C460.537 31.8085 461.114 30.7676 461.614 29.6888C462.163 28.4656 462.59 27.1916 462.89 25.8855C463.279 24.1568 463.462 22.3882 463.436 20.6165C463.47 18.35 463.225 16.0872 462.706 13.8799C462.283 12.1193 461.623 10.4239 460.743 8.84032C460.002 7.51336 459.08 6.2951 458.005 5.22048C457.049 4.28336 455.993 3.45359 454.856 2.7467C452.284 1.19713 449.365 0.314736 446.365 0.181183H419.256V68.9063L419.253 68.9081ZM429.365 57.2704V40.8677H450.775C451.964 40.9221 453.123 41.2685 454.147 41.8761C455.126 42.497 455.938 43.3462 456.516 44.3505C457.323 45.8368 457.702 47.5182 457.609 49.2068C457.707 50.8176 457.344 52.4228 456.562 53.8348C455.966 54.8006 455.156 55.6159 454.193 56.2173C453.136 56.7922 451.975 57.1504 450.777 57.2704H429.367H429.365ZM429.365 29.2301V11.8204H446.315C447.348 11.8824 448.335 12.2669 449.138 12.9196C450.001 13.6412 450.686 14.5509 451.142 15.5774C451.826 17.1984 452.137 18.9521 452.053 20.7092C452.137 22.4216 451.825 24.1294 451.143 25.7025C450.696 26.6969 450.007 27.563 449.138 28.2231C448.343 28.8754 447.344 29.2314 446.315 29.2302L429.365 29.2301Z" fill="white"/>
</svg>
