<svg xmlns="http://www.w3.org/2000/svg" viewBox="0 0 1000 347.06"><defs><style>.cls-1{fill:#98805c;}.cls-2{fill:#353435;}</style></defs><g id="Layer_2" data-name="Layer 2"><g id="Layer_1-2" data-name="Layer 1"><g id="black"><path class="cls-1" d="M343,141.55a109.56,109.56,0,0,0-66.59-71c-33.6-94.06-172.26-94-205.82,0-94.08,33.57-94,172.29,0,205.84,34.39,94.28,171.46,94.24,205.82,0C329.52,257.7,360.28,195.26,343,141.55Zm-193.63-112C183.64,18.67,224,33.37,243,63.69,178,60.23,126.4,114.18,127.26,178.18,69.41,141.52,83.29,47.82,149.32,29.58Zm2.51,159.78c4.61-11.91,1.64-25.39,5.72-37.53,11.85,4.57,25.49,1.68,37.51,5.71-4.57,11.85-1.67,25.51-5.71,37.52C173.9,191.07,165.36,195.06,151.83,189.36ZM29.6,197.57c-11-34.28,3.81-74.75,34.1-93.71-3.44,52.24,35.13,102.31,86.38,112.67,0,0,19.18,2.17,28.12,3.1C141.54,277.43,47.82,263.64,29.6,197.57Zm168.76,119.5c-34.49,11.35-75.35-3.31-94.49-33.88,63.58,4.48,117.66-51.88,115.77-114.5C277.16,205.14,263.85,298.29,198.36,317.07ZM317.3,197.57A82.88,82.88,0,0,1,283.2,243c4.51-63.58-51.91-117.68-114.49-115.79C222.09,49,344,106.61,317.3,197.57Z"/><path class="cls-2" d="M511.18,114q30.33,0,50.17,20t19.85,50.29q0,30.32-19.85,50.29t-50.17,20q-23.91,0-41.66-14.8l-4.19,11.1H438.71V69.62h36v55.23A63.55,63.55,0,0,1,511.18,114Zm-28.84,96.14q10.35,10.35,26,10.36t25.89-10.36q10.21-10.35,10.22-25.88a38.56,38.56,0,0,0-4.56-18.74A32.47,32.47,0,0,0,527,152.46a39.27,39.27,0,0,0-37.22,0,33.3,33.3,0,0,0-13.07,13.06A37.77,37.77,0,0,0,472,184.26Q472,199.79,482.34,210.14Z"/><path class="cls-2" d="M677.68,218.77H694v32h-25.4q-14.53,0-25.26-5.67a38.52,38.52,0,0,1-16.4-16.4q-5.67-10.73-5.67-25.51v-56.7H597.06V138.9l52.76-56h6.65V117.7h36.74v28.84h-36v52q0,9.62,5.3,14.91T677.68,218.77Z"/><path class="cls-2" d="M853.64,183.76a77.15,77.15,0,0,1-.74,10.6H752.32q2.22,13.56,10.72,20.84t21.82,7.27a33.73,33.73,0,0,0,16.52-4.07A29.84,29.84,0,0,0,813,207.18h38q-7.39,21.7-25.15,34.52t-40.92,12.82q-29.58,0-49.3-20.22t-19.72-50a77.16,77.16,0,0,1,3.32-22.68,65.53,65.53,0,0,1,9.62-19.48,70.1,70.1,0,0,1,14.67-14.91,64.66,64.66,0,0,1,19-9.74A72,72,0,0,1,784.86,114q20,0,35.87,9.37a63.6,63.6,0,0,1,24.41,25.39A73.48,73.48,0,0,1,853.64,183.76Zm-68.78-39.19q-12.08,0-20.34,6.65t-11.21,18.49h64.34A38.16,38.16,0,0,0,810.5,156a31.44,31.44,0,0,0-11.22-8.5A34.41,34.41,0,0,0,784.86,144.57Z"/><path class="cls-2" d="M1000,250.82H959.32l-26.38-44.13-27.11,44.13H866.14l45.36-68.29L869.1,117.7h40.67l23.17,38.45L957.6,117.7h39.69l-43.14,62.86Z"/></g></g></g></svg>